<svg id="svg" version="1.1" xmlns="http://www.w3.org/2000/svg" xmlns:xlink="http://www.w3.org/1999/xlink" width="400" height="400" viewBox="0, 0, 400,400"><g id="svgg"><path id="path0" d="M192.497 1.594 C 192.117 2.812,192.000 11.195,192.000 37.145 C 192.000 68.227,191.944 71.149,191.339 71.651 C 190.397 72.434,169.025 72.685,168.108 71.924 C 167.429 71.360,167.628 61.584,168.420 56.600 C 169.477 49.952,170.129 41.238,169.616 40.619 C 169.013 39.892,155.721 39.693,154.416 40.392 C 153.318 40.979,152.869 43.713,152.402 52.647 C 152.171 57.073,151.721 61.663,151.403 62.847 C 151.084 64.031,150.630 68.690,150.393 73.200 C 150.156 77.710,149.703 82.965,149.385 84.879 C 149.067 86.792,148.612 91.022,148.373 94.279 C 147.812 101.915,147.848 101.775,146.194 102.750 C 144.799 103.574,144.440 103.583,113.892 103.613 C 84.252 103.642,82.959 103.674,82.000 104.399 L 81.000 105.154 80.883 183.477 C 80.819 226.555,80.874 262.395,81.006 263.122 C 81.545 266.110,80.843 265.999,99.300 266.006 C 118.321 266.013,117.583 265.888,118.221 269.209 L 118.641 271.400 124.308 271.600 C 131.711 271.861,131.302 271.407,130.786 278.809 C 130.127 288.273,129.618 293.423,129.222 294.647 C 129.017 295.281,128.642 299.815,128.387 304.722 C 128.133 309.629,127.766 314.669,127.572 315.922 C 127.377 317.175,127.027 320.540,126.793 323.400 C 126.559 326.260,126.093 330.670,125.758 333.200 C 125.039 338.637,124.588 343.986,124.022 353.800 C 123.794 357.760,123.435 361.630,123.225 362.400 C 123.015 363.170,122.559 367.490,122.213 372.000 C 121.866 376.510,121.411 381.100,121.201 382.200 C 120.991 383.300,120.622 386.813,120.381 390.006 C 120.140 393.199,119.912 396.079,119.875 396.406 C 119.838 396.733,120.067 397.675,120.384 398.500 L 120.961 400.000 128.001 400.000 L 135.042 400.000 135.695 398.100 C 136.635 395.367,137.128 391.583,137.611 383.400 C 137.845 379.440,138.280 375.210,138.578 374.000 C 138.876 372.790,139.238 369.460,139.382 366.600 C 139.732 359.687,140.339 353.631,140.806 352.400 C 141.015 351.850,141.341 349.166,141.530 346.435 C 141.839 341.979,141.967 341.394,142.781 340.735 C 144.049 339.708,256.747 339.572,257.597 340.596 C 257.869 340.924,258.330 343.219,258.622 345.696 C 258.914 348.173,259.333 350.920,259.553 351.800 C 259.773 352.680,260.153 356.820,260.398 361.000 C 260.642 365.180,261.096 369.866,261.407 371.412 C 261.717 372.959,262.159 377.459,262.389 381.412 C 262.620 385.366,262.976 389.500,263.182 390.600 C 263.387 391.700,263.671 393.590,263.811 394.800 C 263.952 396.010,264.260 397.675,264.497 398.500 L 264.927 400.000 272.199 400.000 L 279.472 400.000 279.993 398.421 C 280.408 397.164,280.422 396.001,280.062 392.721 C 279.812 390.454,279.499 386.800,279.365 384.600 C 279.230 382.400,278.966 379.970,278.777 379.200 C 278.588 378.430,278.237 375.010,277.996 371.600 C 277.755 368.190,277.219 363.060,276.803 360.200 C 276.388 357.340,275.848 350.950,275.603 346.000 C 275.357 341.050,274.902 335.521,274.590 333.714 C 274.278 331.907,273.834 327.947,273.604 324.914 C 273.373 321.881,272.924 317.510,272.606 315.200 C 272.288 312.890,271.830 306.950,271.587 302.000 C 271.345 297.050,270.900 292.100,270.598 291.000 C 269.776 287.998,268.932 272.908,269.552 272.286 C 269.866 271.971,272.036 271.729,275.707 271.600 L 281.377 271.400 281.721 269.600 C 282.404 266.023,281.333 266.227,300.643 266.000 C 319.589 265.777,318.487 265.956,319.010 263.031 C 319.130 262.354,319.178 226.555,319.115 183.477 L 319.000 105.154 318.000 104.386 C 317.034 103.644,315.949 103.617,285.843 103.609 L 254.687 103.600 253.580 102.442 C 252.683 101.503,252.431 100.801,252.255 98.742 C 251.745 92.785,250.753 83.221,250.414 81.000 C 250.213 79.680,249.864 74.956,249.639 70.502 C 249.414 66.047,249.046 62.060,248.822 61.642 C 248.380 60.816,247.748 54.451,247.289 46.211 C 247.010 41.208,246.964 41.003,246.000 40.517 C 244.594 39.807,231.058 39.792,230.513 40.500 C 230.051 41.100,230.512 47.708,231.399 53.200 C 232.378 59.259,232.794 70.832,232.064 71.700 C 231.222 72.703,210.709 72.772,209.289 71.777 L 208.400 71.155 208.400 37.282 C 208.400 5.937,208.348 3.281,207.700 1.706 L 207.000 0.003 199.997 0.001 L 192.995 0.000 192.497 1.594 M190.800 90.117 C 191.778 90.611,191.802 90.734,191.912 95.715 C 192.091 103.839,192.520 103.600,177.735 103.600 L 166.793 103.600 165.556 102.500 C 164.397 101.469,164.335 101.275,164.571 99.400 C 164.710 98.300,164.929 95.960,165.059 94.200 C 165.421 89.280,164.510 89.599,178.162 89.606 C 186.732 89.610,190.064 89.745,190.800 90.117 M234.171 90.229 C 234.517 90.574,234.800 91.375,234.800 92.009 C 234.800 92.642,234.968 94.024,235.173 95.080 C 236.185 100.289,236.138 101.150,234.775 102.424 L 233.515 103.600 222.295 103.600 L 211.076 103.600 209.738 102.580 L 208.400 101.559 208.400 96.202 C 208.400 91.120,208.446 90.813,209.289 90.223 C 210.628 89.285,233.233 89.290,234.171 90.229 M314.388 105.901 C 316.423 106.926,316.317 102.684,316.360 184.720 C 316.403 267.305,316.535 262.220,314.313 263.776 C 313.511 264.338,302.126 264.400,199.932 264.400 L 86.441 264.400 85.481 263.500 C 84.954 263.005,84.314 262.207,84.061 261.726 C 83.551 260.759,83.443 109.470,83.951 107.600 C 84.111 107.014,84.798 106.310,85.612 105.901 C 87.769 104.814,312.231 104.814,314.388 105.901 M166.258 272.724 C 169.139 275.478,170.470 275.780,180.690 276.000 C 189.693 276.194,190.008 276.228,190.890 277.111 L 191.800 278.022 191.914 299.111 C 192.041 322.459,192.092 321.712,190.289 322.811 C 189.049 323.567,188.164 323.597,166.923 323.599 L 144.845 323.600 144.223 322.711 C 143.321 321.423,143.661 313.935,144.791 310.200 C 144.991 309.540,145.362 304.950,145.616 300.000 C 145.870 295.050,146.239 289.830,146.436 288.400 C 146.633 286.970,147.056 282.962,147.377 279.494 C 148.161 271.014,147.318 271.661,157.641 271.625 L 165.081 271.600 166.258 272.724 M250.704 272.026 C 252.137 272.526,252.254 272.893,252.607 278.000 C 252.752 280.090,253.036 282.430,253.240 283.200 C 253.443 283.970,253.879 289.100,254.209 294.600 C 254.538 300.100,255.078 306.135,255.408 308.012 C 256.423 313.785,256.653 321.354,255.851 322.578 L 255.182 323.600 233.021 323.600 L 210.861 323.600 209.631 322.564 L 208.400 321.529 208.400 299.934 L 208.400 278.338 209.569 277.169 L 210.738 276.000 218.792 276.000 C 227.746 276.000,229.667 275.692,232.315 273.832 C 233.281 273.155,234.460 272.378,234.935 272.106 C 236.036 271.477,248.941 271.412,250.704 272.026 " stroke="none" fill="#171717" fill-rule="evenodd"></path><path id="path1" d="M0.000 200.000 L 0.000 400.000 58.938 400.000 L 117.877 400.000 117.905 396.500 C 117.921 394.575,118.211 391.805,118.551 390.345 C 118.890 388.885,119.361 384.655,119.598 380.945 C 119.834 377.235,120.202 373.120,120.416 371.800 C 120.629 370.480,120.984 367.150,121.204 364.400 C 121.730 357.848,122.337 352.890,122.797 351.400 C 123.001 350.740,123.355 345.520,123.585 339.800 C 123.843 333.368,124.221 328.561,124.578 327.200 C 124.894 325.990,125.344 321.760,125.576 317.800 C 125.809 313.840,126.263 309.070,126.585 307.200 C 126.908 305.330,127.350 300.560,127.569 296.600 C 127.788 292.640,128.249 288.336,128.595 287.036 C 129.290 284.419,129.868 275.524,129.451 273.861 L 129.185 272.800 124.081 272.800 C 118.295 272.800,117.200 272.417,117.200 270.391 C 117.200 268.257,116.904 268.218,98.761 268.000 C 81.347 267.791,81.587 267.816,80.100 266.043 C 79.704 265.571,79.600 248.750,79.600 184.884 L 79.600 104.320 80.960 102.960 L 82.320 101.600 113.680 101.600 C 148.109 101.600,146.001 101.768,145.999 99.020 C 145.999 98.129,146.257 95.870,146.574 94.000 C 146.890 92.130,147.355 87.900,147.607 84.600 C 147.858 81.300,148.316 77.430,148.623 76.000 C 148.931 74.570,149.366 69.980,149.590 65.800 C 149.814 61.620,150.247 57.030,150.551 55.600 C 150.856 54.170,151.228 50.300,151.379 47.000 C 151.803 37.728,151.488 38.000,161.790 38.000 L 168.885 38.000 170.442 39.234 C 172.248 40.664,172.341 41.331,171.428 46.292 C 171.113 48.001,170.650 52.190,170.399 55.600 C 170.149 59.010,169.686 63.060,169.372 64.600 C 169.058 66.140,168.801 68.255,168.800 69.300 L 168.800 71.200 179.200 71.200 C 184.920 71.200,189.640 71.155,189.689 71.100 C 189.738 71.045,189.878 55.430,190.000 36.400 C 190.122 17.370,190.373 1.395,190.558 0.900 L 190.893 0.000 95.447 0.000 L 0.000 0.000 0.000 200.000 M209.844 0.900 C 210.030 1.395,210.234 17.415,210.298 36.500 L 210.413 71.200 220.833 71.200 L 231.253 71.200 231.099 67.300 C 231.015 65.155,230.647 61.510,230.282 59.200 C 229.917 56.890,229.424 52.570,229.187 49.600 C 228.951 46.630,228.656 43.420,228.533 42.466 C 228.331 40.900,228.438 40.599,229.633 39.366 L 230.957 38.000 238.219 38.000 C 248.654 38.000,248.566 37.913,248.755 48.400 C 248.784 50.050,249.076 52.281,249.403 53.358 C 249.741 54.473,250.180 58.607,250.422 62.958 C 250.656 67.161,251.094 71.860,251.396 73.400 C 251.698 74.940,252.138 78.720,252.372 81.800 C 252.607 84.880,253.072 89.380,253.406 91.800 C 253.740 94.220,254.145 97.370,254.307 98.800 L 254.600 101.400 286.274 101.600 L 317.948 101.800 319.174 102.975 L 320.400 104.150 320.400 184.897 L 320.400 265.645 319.111 266.823 L 317.822 268.000 301.685 268.000 C 283.845 268.000,284.340 267.930,283.144 270.634 C 282.714 271.605,282.326 272.427,282.281 272.461 C 282.237 272.494,279.590 272.629,276.400 272.761 L 270.600 273.000 270.685 277.704 C 270.739 280.666,270.998 283.077,271.385 284.215 C 271.772 285.357,272.154 288.931,272.421 293.912 C 272.654 298.250,273.098 303.150,273.407 304.800 C 273.716 306.450,274.168 311.095,274.410 315.122 C 274.653 319.149,275.110 323.649,275.427 325.122 C 275.745 326.599,276.188 332.286,276.415 337.800 C 276.641 343.300,276.992 348.340,277.195 349.000 C 277.700 350.642,278.326 355.786,278.607 360.600 C 278.735 362.800,279.097 366.040,279.411 367.800 C 279.724 369.560,280.164 374.060,280.388 377.800 C 280.611 381.540,281.062 385.860,281.390 387.400 C 281.717 388.940,282.106 392.405,282.253 395.100 L 282.522 400.000 341.261 400.000 L 400.000 400.000 400.000 200.000 L 400.000 0.000 304.753 0.000 L 209.507 0.000 209.844 0.900 M166.604 93.300 C 166.461 94.675,166.401 97.060,166.472 98.600 L 166.600 101.400 177.400 101.512 C 191.275 101.657,190.000 102.089,190.000 97.242 C 190.000 95.074,189.888 92.737,189.750 92.050 L 189.500 90.800 178.182 90.800 L 166.864 90.800 166.604 93.300 M210.488 96.100 L 210.600 101.400 221.400 101.512 C 235.227 101.656,233.926 102.100,233.727 97.306 C 233.638 95.158,233.474 92.815,233.364 92.100 L 233.164 90.800 221.770 90.800 L 210.377 90.800 210.488 96.100 M86.080 108.128 C 85.215 110.522,85.403 259.960,86.274 261.786 L 86.948 263.200 200.010 263.200 L 313.072 263.200 313.636 262.100 C 314.371 260.667,314.703 112.394,313.979 108.900 L 313.543 106.800 200.052 106.800 L 86.561 106.800 86.080 108.128 M149.695 276.500 C 149.163 278.778,148.665 282.890,148.400 287.200 C 148.163 291.050,147.719 295.460,147.414 297.000 C 147.109 298.540,146.743 302.680,146.601 306.200 C 146.459 309.720,146.068 314.040,145.733 315.800 C 145.397 317.560,145.030 319.585,144.917 320.300 L 144.712 321.600 166.724 321.600 C 178.830 321.600,189.019 321.491,189.367 321.357 C 190.198 321.038,190.347 279.307,189.520 278.480 C 189.177 278.137,186.657 278.000,180.719 278.000 C 173.161 278.000,172.260 277.927,170.904 277.200 C 170.084 276.760,169.172 276.400,168.879 276.400 C 168.586 276.400,167.352 275.590,166.136 274.600 L 163.927 272.800 157.243 272.800 L 150.559 272.800 149.695 276.500 M235.400 273.788 C 234.740 274.329,233.969 274.778,233.687 274.786 C 233.406 274.794,233.072 275.068,232.946 275.396 C 232.820 275.724,231.971 276.208,231.059 276.470 C 230.146 276.733,229.045 277.185,228.611 277.474 C 228.021 277.867,225.680 278.000,219.319 278.000 C 210.832 278.000,210.815 278.002,210.597 278.900 C 210.477 279.395,210.428 289.160,210.489 300.600 L 210.600 321.400 232.900 321.503 L 255.200 321.607 255.200 319.254 C 255.200 317.959,254.924 316.119,254.587 315.163 C 254.202 314.073,253.758 310.072,253.393 304.413 C 253.074 299.456,252.638 294.500,252.424 293.400 C 252.210 292.300,251.845 288.340,251.612 284.600 C 251.308 279.729,250.953 277.091,250.361 275.300 L 249.535 272.800 243.067 272.802 C 236.791 272.804,236.565 272.833,235.400 273.788 M143.900 342.462 C 143.021 342.785,142.798 343.121,142.790 344.133 C 142.757 348.127,141.936 358.230,141.436 360.800 C 141.115 362.450,140.675 367.136,140.458 371.213 C 140.191 376.235,139.859 379.137,139.429 380.213 C 138.978 381.340,138.688 384.174,138.426 390.000 C 138.224 394.510,137.934 398.605,137.783 399.100 L 137.507 400.000 200.153 400.000 C 238.743 400.000,262.800 399.856,262.800 399.626 C 262.800 399.420,262.603 398.745,262.363 398.126 C 262.122 397.507,261.762 393.017,261.563 388.149 C 261.298 381.697,261.030 378.890,260.573 377.797 C 260.146 376.775,259.821 373.924,259.553 368.849 C 259.336 364.752,258.889 360.050,258.558 358.400 C 258.228 356.750,257.793 352.541,257.593 349.048 C 257.393 345.554,257.117 342.584,256.981 342.448 C 256.539 342.006,145.102 342.020,143.900 342.462 " stroke="none" fill="#fbfbfb" fill-rule="evenodd"></path><path id="path2" d="M190.480 1.328 C 190.121 2.322,190.000 10.985,190.000 35.678 C 190.000 53.840,189.888 69.263,189.750 69.950 L 189.500 71.200 179.150 71.200 L 168.800 71.200 168.800 69.300 C 168.801 68.255,169.058 66.140,169.372 64.600 C 169.686 63.060,170.149 59.010,170.399 55.600 C 170.650 52.190,171.113 48.001,171.428 46.292 C 172.341 41.331,172.248 40.664,170.442 39.234 L 168.885 38.000 161.790 38.000 C 151.488 38.000,151.803 37.728,151.379 47.000 C 151.228 50.300,150.856 54.170,150.551 55.600 C 150.247 57.030,149.814 61.620,149.590 65.800 C 149.366 69.980,148.931 74.570,148.623 76.000 C 148.316 77.430,147.858 81.300,147.607 84.600 C 147.355 87.900,146.890 92.130,146.574 94.000 C 146.257 95.870,145.999 98.129,145.999 99.020 C 146.001 101.768,148.109 101.600,113.680 101.600 L 82.320 101.600 80.960 102.960 L 79.600 104.320 79.600 184.884 C 79.600 248.750,79.704 265.571,80.100 266.043 C 81.587 267.816,81.347 267.791,98.761 268.000 C 116.904 268.218,117.200 268.257,117.200 270.391 C 117.200 272.417,118.295 272.800,124.081 272.800 L 129.185 272.800 129.451 273.861 C 129.868 275.524,129.290 284.419,128.595 287.036 C 128.249 288.336,127.788 292.640,127.569 296.600 C 127.350 300.560,126.908 305.330,126.585 307.200 C 126.263 309.070,125.809 313.840,125.576 317.800 C 125.344 321.760,124.894 325.990,124.578 327.200 C 124.221 328.561,123.843 333.368,123.585 339.800 C 123.355 345.520,123.001 350.740,122.797 351.400 C 122.337 352.890,121.730 357.848,121.204 364.400 C 120.984 367.150,120.629 370.480,120.416 371.800 C 120.202 373.120,119.835 377.260,119.598 381.000 C 119.362 384.740,118.986 388.486,118.762 389.326 C 117.595 393.703,117.550 400.000,118.684 400.000 C 119.132 400.000,119.196 399.705,118.966 398.700 C 118.613 397.161,118.627 396.807,119.177 393.067 C 119.410 391.490,119.875 386.960,120.211 383.000 C 120.548 379.040,120.901 375.530,120.996 375.200 C 121.090 374.870,121.459 371.185,121.815 367.012 C 122.171 362.838,122.525 359.322,122.601 359.198 C 122.896 358.720,123.598 350.663,124.004 343.090 C 124.237 338.740,124.765 332.710,125.178 329.690 C 125.591 326.671,126.052 322.310,126.202 320.000 C 126.353 317.690,126.641 314.810,126.842 313.600 C 127.043 312.390,127.472 307.260,127.796 302.200 C 128.119 297.140,128.649 291.740,128.972 290.200 C 129.731 286.586,130.475 274.088,129.987 273.175 C 129.678 272.598,128.801 272.469,124.260 272.337 C 118.325 272.163,117.604 271.894,117.594 269.851 C 117.581 267.286,118.474 267.419,99.844 267.200 C 83.351 267.006,82.824 266.975,81.729 266.157 L 80.600 265.314 80.499 184.893 L 80.398 104.473 81.630 103.436 L 82.861 102.400 113.942 102.400 C 140.682 102.400,145.140 102.318,145.864 101.810 C 146.808 101.149,146.986 100.249,147.603 93.000 C 147.828 90.360,148.364 85.230,148.794 81.600 C 149.224 77.970,149.760 72.210,149.984 68.800 C 150.208 65.390,150.653 61.160,150.972 59.400 C 151.291 57.640,151.740 52.780,151.969 48.600 C 152.521 38.543,151.836 39.200,161.778 39.200 C 168.319 39.200,169.210 39.280,170.026 39.940 L 170.940 40.681 170.243 48.840 C 169.860 53.328,169.376 57.720,169.169 58.600 C 168.606 60.987,168.075 70.934,168.486 71.400 C 169.025 72.012,188.217 72.173,189.654 71.578 L 190.800 71.103 190.814 37.051 C 190.826 8.286,190.917 2.845,191.400 2.000 C 192.120 0.740,192.150 0.000,191.480 0.000 C 191.195 0.000,190.745 0.598,190.480 1.328 M208.414 0.500 C 208.422 0.775,208.686 1.450,209.000 2.000 C 209.483 2.845,209.574 8.290,209.586 37.086 C 209.600 70.369,209.618 71.182,210.374 71.586 C 211.694 72.292,230.990 72.135,231.590 71.413 C 232.121 70.772,231.570 60.547,230.770 56.219 C 230.546 55.008,230.126 51.088,229.836 47.508 C 229.112 38.556,228.512 39.115,238.678 39.277 C 248.418 39.433,247.654 38.799,248.090 47.094 C 248.272 50.562,248.697 55.020,249.035 57.000 C 249.372 58.980,249.903 64.307,250.215 68.838 C 250.527 73.368,250.958 77.958,251.174 79.038 C 251.390 80.117,251.856 84.330,252.210 88.400 C 253.033 97.875,253.492 100.817,254.285 101.693 C 254.885 102.357,256.804 102.400,286.031 102.400 L 317.139 102.400 318.370 103.436 L 319.602 104.473 319.501 184.920 L 319.400 265.368 318.041 266.284 L 316.682 267.200 300.523 267.200 L 284.364 267.200 283.382 268.182 C 282.842 268.722,282.400 269.600,282.400 270.133 C 282.400 271.849,281.505 272.148,275.661 272.382 L 270.200 272.600 270.252 278.000 C 270.283 281.287,270.623 285.356,271.120 288.400 C 271.568 291.150,272.054 296.100,272.198 299.400 C 272.343 302.700,272.631 306.750,272.838 308.400 C 273.045 310.050,273.570 315.312,274.004 320.094 C 274.439 324.876,274.965 329.556,275.175 330.494 C 275.385 331.432,275.748 336.070,275.983 340.800 C 276.433 349.894,276.617 352.058,277.236 355.600 C 277.604 357.703,278.537 366.976,279.813 381.200 C 280.138 384.830,280.691 389.687,281.042 391.993 C 281.407 394.397,281.571 396.999,281.425 398.093 C 281.210 399.715,281.273 400.000,281.847 400.000 C 282.677 400.000,282.390 392.106,281.390 387.400 C 281.062 385.860,280.611 381.540,280.388 377.800 C 280.164 374.060,279.724 369.560,279.411 367.800 C 279.097 366.040,278.735 362.800,278.607 360.600 C 278.326 355.786,277.700 350.642,277.195 349.000 C 276.992 348.340,276.641 343.300,276.415 337.800 C 276.188 332.286,275.745 326.599,275.427 325.122 C 275.110 323.649,274.653 319.149,274.410 315.122 C 274.168 311.095,273.716 306.450,273.407 304.800 C 273.098 303.150,272.654 298.250,272.421 293.912 C 272.154 288.931,271.772 285.357,271.385 284.215 C 270.998 283.077,270.739 280.666,270.685 277.704 L 270.600 273.000 276.400 272.761 C 279.590 272.629,282.237 272.494,282.281 272.461 C 282.326 272.427,282.714 271.605,283.144 270.634 C 284.340 267.930,283.845 268.000,301.685 268.000 L 317.822 268.000 319.111 266.823 L 320.400 265.645 320.400 184.897 L 320.400 104.150 319.174 102.975 L 317.948 101.800 286.274 101.600 L 254.600 101.400 254.307 98.800 C 254.145 97.370,253.740 94.220,253.406 91.800 C 253.072 89.380,252.607 84.880,252.372 81.800 C 252.138 78.720,251.698 74.940,251.396 73.400 C 251.094 71.860,250.656 67.161,250.422 62.958 C 250.180 58.607,249.741 54.473,249.403 53.358 C 249.076 52.281,248.784 50.050,248.755 48.400 C 248.566 37.913,248.654 38.000,238.219 38.000 L 230.957 38.000 229.633 39.366 C 228.438 40.599,228.331 40.900,228.533 42.466 C 228.656 43.420,228.951 46.630,229.187 49.600 C 229.424 52.570,229.917 56.890,230.282 59.200 C 230.647 61.510,231.015 65.155,231.099 67.300 L 231.253 71.200 220.827 71.200 L 210.400 71.200 210.400 37.146 C 210.400 2.577,210.298 0.000,208.937 0.000 C 208.642 0.000,208.406 0.225,208.414 0.500 M167.400 90.349 L 166.200 90.604 165.842 95.965 C 165.372 103.009,164.223 102.400,177.987 102.400 C 191.882 102.400,190.800 102.937,190.800 96.042 C 190.800 90.951,190.796 90.926,189.781 90.464 C 188.691 89.967,169.660 89.870,167.400 90.349 M210.300 90.422 C 209.185 91.087,209.251 101.385,210.374 101.986 C 211.870 102.787,232.957 102.525,233.985 101.693 C 234.916 100.938,234.554 91.619,233.554 90.600 C 233.003 90.039,211.222 89.872,210.300 90.422 M189.750 92.050 C 189.888 92.737,190.000 95.074,190.000 97.242 C 190.000 102.089,191.275 101.657,177.400 101.512 L 166.600 101.400 166.472 98.600 C 166.401 97.060,166.461 94.675,166.604 93.300 L 166.864 90.800 178.182 90.800 L 189.500 90.800 189.750 92.050 M233.364 92.100 C 233.474 92.815,233.638 95.158,233.727 97.306 C 233.926 102.100,235.227 101.656,221.400 101.512 L 210.600 101.400 210.488 96.100 L 210.377 90.800 221.770 90.800 L 233.164 90.800 233.364 92.100 M85.782 106.982 L 84.800 107.964 84.800 184.620 L 84.800 261.277 85.627 262.438 L 86.454 263.600 200.000 263.600 L 313.546 263.600 314.365 262.450 C 315.101 261.416,315.569 176.600,315.208 109.482 C 315.202 108.411,314.911 107.675,314.218 106.982 L 313.236 106.000 200.000 106.000 L 86.764 106.000 85.782 106.982 M313.979 108.900 C 314.703 112.394,314.371 260.667,313.636 262.100 L 313.072 263.200 200.010 263.200 L 86.948 263.200 86.274 261.786 C 85.403 259.960,85.215 110.522,86.080 108.128 L 86.561 106.800 200.052 106.800 L 313.543 106.800 313.979 108.900 M149.701 272.729 C 149.015 273.165,148.538 276.146,147.799 284.600 C 147.453 288.560,147.087 292.078,146.985 292.417 C 146.882 292.756,146.533 297.256,146.207 302.417 C 145.882 307.578,145.351 313.060,145.028 314.600 C 144.352 317.822,144.131 321.241,144.555 321.928 C 145.114 322.832,189.313 322.580,190.138 321.669 C 191.116 320.588,191.153 279.482,190.177 278.089 C 189.571 277.223,189.355 277.200,181.935 277.200 C 172.094 277.200,167.960 276.158,165.677 273.100 C 165.115 272.347,150.826 272.015,149.701 272.729 M233.400 274.039 C 230.172 276.579,228.555 276.928,219.200 277.105 C 212.441 277.233,210.877 277.371,210.300 277.892 C 209.410 278.696,209.198 321.038,210.080 321.920 C 211.017 322.857,255.074 322.584,255.580 321.637 C 256.017 320.821,255.561 314.401,254.837 311.160 C 254.620 310.192,254.248 306.250,254.010 302.400 C 253.772 298.550,253.399 293.780,253.182 291.800 C 252.965 289.820,252.520 285.320,252.194 281.800 C 251.228 271.377,252.259 272.405,242.800 272.438 L 235.400 272.465 233.400 274.039 M166.136 274.600 C 167.352 275.590,168.586 276.400,168.879 276.400 C 169.172 276.400,170.084 276.760,170.904 277.200 C 172.260 277.927,173.161 278.000,180.719 278.000 C 186.657 278.000,189.177 278.137,189.520 278.480 C 190.347 279.307,190.198 321.038,189.367 321.357 C 189.019 321.491,178.830 321.600,166.724 321.600 L 144.712 321.600 144.917 320.300 C 145.030 319.585,145.397 317.560,145.733 315.800 C 146.068 314.040,146.459 309.720,146.601 306.200 C 146.743 302.680,147.109 298.540,147.414 297.000 C 147.719 295.460,148.163 291.050,148.400 287.200 C 148.665 282.890,149.163 278.778,149.695 276.500 L 150.559 272.800 157.243 272.800 L 163.927 272.800 166.136 274.600 M250.361 275.300 C 250.953 277.091,251.308 279.729,251.612 284.600 C 251.845 288.340,252.210 292.300,252.424 293.400 C 252.638 294.500,253.074 299.456,253.393 304.413 C 253.758 310.072,254.202 314.073,254.587 315.163 C 254.924 316.119,255.200 317.959,255.200 319.254 L 255.200 321.607 232.900 321.503 L 210.600 321.400 210.489 300.600 C 210.428 289.160,210.477 279.395,210.597 278.900 C 210.815 278.002,210.832 278.000,219.319 278.000 C 225.680 278.000,228.021 277.867,228.611 277.474 C 229.045 277.185,230.146 276.733,231.059 276.470 C 231.971 276.208,232.820 275.724,232.946 275.396 C 233.072 275.068,233.406 274.794,233.687 274.786 C 233.969 274.778,234.740 274.329,235.400 273.788 C 236.565 272.833,236.791 272.804,243.067 272.802 L 249.535 272.800 250.361 275.300 M143.890 341.372 C 142.500 341.860,142.504 341.845,142.005 348.533 C 141.768 351.701,141.399 354.902,141.183 355.646 C 140.968 356.391,140.606 360.060,140.379 363.800 C 140.152 367.540,139.603 373.013,139.159 375.962 C 138.715 378.910,138.163 384.670,137.933 388.762 C 137.679 393.267,137.294 396.732,136.957 397.549 C 136.247 399.268,136.251 400.000,136.972 400.000 C 137.843 400.000,138.312 396.680,138.557 388.779 C 138.716 383.639,138.947 381.346,139.417 380.220 C 139.863 379.154,140.182 376.399,140.456 371.241 C 140.674 367.148,141.115 362.450,141.436 360.800 C 141.937 358.225,142.757 348.121,142.790 344.116 C 142.799 342.980,142.972 342.782,144.300 342.397 C 145.918 341.928,256.511 341.978,256.981 342.448 C 257.117 342.584,257.393 345.554,257.593 349.048 C 257.793 352.541,258.228 356.750,258.558 358.400 C 258.889 360.050,259.336 364.752,259.553 368.849 C 259.821 373.924,260.146 376.775,260.573 377.797 C 261.027 378.884,261.304 381.732,261.579 388.149 C 261.932 396.361,262.450 400.000,263.267 400.000 C 263.725 400.000,263.689 399.434,263.022 396.200 C 262.705 394.660,262.250 389.890,262.011 385.600 C 261.773 381.310,261.312 376.540,260.986 375.000 C 260.660 373.460,260.204 369.050,259.973 365.200 C 259.741 361.350,259.282 356.580,258.951 354.600 C 258.621 352.620,258.255 349.380,258.140 347.400 C 258.024 345.420,257.751 343.215,257.534 342.500 L 257.138 341.200 205.469 341.124 C 177.051 341.082,151.809 341.037,149.375 341.024 C 146.941 341.011,144.473 341.167,143.890 341.372 " stroke="none" fill="#989898" fill-rule="evenodd"></path><path id="path3" d="M208.032 0.424 C 208.014 0.766,208.280 1.396,208.622 1.824 C 209.234 2.588,209.238 2.587,208.876 1.800 C 208.674 1.360,208.408 0.730,208.286 0.400 C 208.093 -0.118,208.059 -0.115,208.032 0.424 M190.991 36.200 C 190.991 54.680,191.040 62.182,191.100 52.870 C 191.160 43.559,191.160 28.439,191.100 19.270 C 191.040 10.102,190.991 17.720,190.991 36.200 M209.391 37.000 C 209.391 55.920,209.440 63.601,209.500 54.070 C 209.560 44.538,209.560 29.058,209.500 19.670 C 209.440 10.281,209.391 18.080,209.391 37.000 M247.701 43.000 C 247.705 43.880,247.787 44.193,247.883 43.695 C 247.979 43.198,247.975 42.478,247.875 42.095 C 247.775 41.713,247.696 42.120,247.701 43.000 M248.101 50.600 C 248.105 51.480,248.187 51.793,248.283 51.295 C 248.379 50.798,248.375 50.078,248.275 49.695 C 248.175 49.313,248.096 49.720,248.101 50.600 M151.693 52.400 C 151.693 53.170,151.775 53.485,151.876 53.100 C 151.976 52.715,151.976 52.085,151.876 51.700 C 151.775 51.315,151.693 51.630,151.693 52.400 M231.293 60.000 C 231.293 60.770,231.375 61.085,231.476 60.700 C 231.576 60.315,231.576 59.685,231.476 59.300 C 231.375 58.915,231.293 59.230,231.293 60.000 M231.693 66.000 C 231.693 66.770,231.775 67.085,231.876 66.700 C 231.976 66.315,231.976 65.685,231.876 65.300 C 231.775 64.915,231.693 65.230,231.693 66.000 M168.101 69.000 C 168.105 69.880,168.187 70.193,168.283 69.695 C 168.379 69.198,168.375 68.478,168.275 68.095 C 168.175 67.713,168.096 68.120,168.101 69.000 M250.101 69.800 C 250.105 70.680,250.187 70.993,250.283 70.495 C 250.379 69.998,250.375 69.278,250.275 68.895 C 250.175 68.513,250.096 68.920,250.101 69.800 M149.693 71.600 C 149.693 72.370,149.775 72.685,149.876 72.300 C 149.976 71.915,149.976 71.285,149.876 70.900 C 149.775 70.515,149.693 70.830,149.693 71.600 M209.357 96.000 C 209.357 98.970,209.420 100.185,209.497 98.700 C 209.574 97.215,209.574 94.785,209.497 93.300 C 209.420 91.815,209.357 93.030,209.357 96.000 M190.884 96.820 C 190.831 99.491,190.618 101.253,190.303 101.620 C 189.989 101.986,190.068 101.968,190.518 101.571 C 191.132 101.028,191.212 100.371,191.099 96.771 L 190.969 92.600 190.884 96.820 M252.493 94.000 C 252.493 94.770,252.575 95.085,252.676 94.700 C 252.776 94.315,252.776 93.685,252.676 93.300 C 252.575 92.915,252.493 93.230,252.493 94.000 M165.693 94.800 C 165.693 95.570,165.775 95.885,165.876 95.500 C 165.976 95.115,165.976 94.485,165.876 94.100 C 165.775 93.715,165.693 94.030,165.693 94.800 M165.293 100.000 C 165.293 100.770,165.375 101.085,165.476 100.700 C 165.576 100.315,165.576 99.685,165.476 99.300 C 165.375 98.915,165.293 99.230,165.293 100.000 M253.246 100.238 C 253.221 100.699,253.605 101.419,254.100 101.838 C 254.993 102.594,254.995 102.593,254.341 101.800 C 253.979 101.360,253.595 100.640,253.488 100.200 C 253.300 99.431,253.291 99.432,253.246 100.238 M84.596 184.800 C 84.596 226.930,84.643 244.165,84.700 223.100 C 84.757 202.035,84.757 167.565,84.700 146.500 C 84.643 125.435,84.596 142.670,84.596 184.800 M315.396 187.400 C 315.396 228.100,315.443 244.691,315.500 224.268 C 315.557 203.846,315.557 170.546,315.500 150.268 C 315.443 129.991,315.396 146.700,315.396 187.400 M143.332 263.900 C 174.535 263.957,225.475 263.957,256.532 263.900 C 287.590 263.843,262.060 263.797,199.800 263.797 C 137.540 263.797,112.130 263.843,143.332 263.900 M91.500 267.100 C 95.955 267.164,103.245 267.164,107.700 267.100 C 112.155 267.035,108.510 266.982,99.600 266.982 C 90.690 266.982,87.045 267.035,91.500 267.100 M292.700 267.100 C 297.155 267.164,304.445 267.164,308.900 267.100 C 313.355 267.035,309.710 266.982,300.800 266.982 C 291.890 266.982,288.245 267.035,292.700 267.100 M117.646 270.251 C 117.621 270.719,117.915 271.349,118.300 271.651 C 118.909 272.128,118.940 272.122,118.543 271.600 C 118.292 271.270,117.998 270.640,117.889 270.200 C 117.703 269.440,117.690 269.443,117.646 270.251 M122.500 272.296 C 123.765 272.375,125.835 272.375,127.100 272.296 C 128.365 272.216,127.330 272.151,124.800 272.151 C 122.270 272.151,121.235 272.216,122.500 272.296 M153.900 272.298 C 155.715 272.372,158.685 272.372,160.500 272.298 C 162.315 272.223,160.830 272.163,157.200 272.163 C 153.570 272.163,152.085 272.223,153.900 272.298 M239.720 272.298 C 241.655 272.372,244.715 272.371,246.520 272.297 C 248.324 272.223,246.740 272.163,243.000 272.164 C 239.260 272.164,237.784 272.225,239.720 272.298 M272.900 272.296 C 274.165 272.375,276.235 272.375,277.500 272.296 C 278.765 272.216,277.730 272.151,275.200 272.151 C 272.670 272.151,271.635 272.216,272.900 272.296 M269.762 272.954 C 269.645 273.259,269.610 274.294,269.683 275.254 C 269.813 276.944,269.823 276.926,270.009 274.699 C 270.203 272.365,270.145 271.956,269.762 272.954 M130.101 277.400 C 130.105 278.280,130.187 278.593,130.283 278.095 C 130.379 277.598,130.375 276.878,130.275 276.495 C 130.175 276.113,130.096 276.520,130.101 277.400 M177.521 277.099 C 179.788 277.170,183.388 277.170,185.521 277.098 C 187.655 277.026,185.800 276.968,181.400 276.968 C 177.000 276.968,175.255 277.027,177.521 277.099 M210.162 277.700 C 209.402 278.597,209.403 278.598,210.222 277.909 C 210.927 277.316,212.148 277.201,218.822 277.100 L 226.600 276.982 218.762 276.891 C 211.072 276.802,210.910 276.817,210.162 277.700 M190.707 299.699 C 190.807 319.499,190.767 320.978,190.107 321.761 L 189.400 322.600 190.300 321.838 L 191.200 321.076 191.200 299.962 C 191.200 288.349,191.065 278.764,190.900 278.662 C 190.735 278.560,190.648 288.026,190.707 299.699 M209.386 300.000 C 209.386 311.770,209.437 316.585,209.500 310.700 C 209.562 304.815,209.562 295.185,209.500 289.300 C 209.437 283.415,209.386 288.230,209.386 300.000 M147.293 288.000 C 147.293 288.770,147.375 289.085,147.476 288.700 C 147.576 288.315,147.576 287.685,147.476 287.300 C 147.375 286.915,147.293 287.230,147.293 288.000 M253.293 292.400 C 253.293 293.170,253.375 293.485,253.476 293.100 C 253.576 292.715,253.576 292.085,253.476 291.700 C 253.375 291.315,253.293 291.630,253.293 292.400 M271.701 293.800 C 271.705 294.680,271.787 294.993,271.883 294.495 C 271.979 293.998,271.975 293.278,271.875 292.895 C 271.775 292.513,271.696 292.920,271.701 293.800 M128.093 296.400 C 128.093 297.170,128.175 297.485,128.276 297.100 C 128.376 296.715,128.376 296.085,128.276 295.700 C 128.175 295.315,128.093 295.630,128.093 296.400 M253.693 298.000 C 253.693 298.770,253.775 299.085,253.876 298.700 C 253.976 298.315,253.976 297.685,253.876 297.300 C 253.775 296.915,253.693 297.230,253.693 298.000 M146.109 300.800 C 146.109 301.790,146.187 302.195,146.282 301.700 C 146.378 301.205,146.378 300.395,146.282 299.900 C 146.187 299.405,146.109 299.810,146.109 300.800 M272.101 301.400 C 272.105 302.280,272.187 302.593,272.283 302.095 C 272.379 301.598,272.375 300.878,272.275 300.495 C 272.175 300.113,272.096 300.520,272.101 301.400 M127.709 304.000 C 127.709 304.990,127.787 305.395,127.882 304.900 C 127.978 304.405,127.978 303.595,127.882 303.100 C 127.787 302.605,127.709 303.010,127.709 304.000 M145.693 308.400 C 145.693 309.170,145.775 309.485,145.876 309.100 C 145.976 308.715,145.976 308.085,145.876 307.700 C 145.775 307.315,145.693 307.630,145.693 308.400 M255.693 318.000 C 255.693 318.770,255.775 319.085,255.876 318.700 C 255.976 318.315,255.976 317.685,255.876 317.300 C 255.775 316.915,255.693 317.230,255.693 318.000 M126.093 320.800 C 126.093 321.570,126.175 321.885,126.276 321.500 C 126.376 321.115,126.376 320.485,126.276 320.100 C 126.175 319.715,126.093 320.030,126.093 320.800 M254.200 322.400 L 253.000 322.705 254.076 322.753 C 254.668 322.779,255.264 322.620,255.400 322.400 C 255.536 322.180,255.592 322.021,255.524 322.047 C 255.456 322.073,254.860 322.232,254.200 322.400 M157.900 322.700 C 163.675 322.762,173.125 322.762,178.900 322.700 C 184.675 322.637,179.950 322.586,168.400 322.586 C 156.850 322.586,152.125 322.637,157.900 322.700 M221.328 322.700 C 227.229 322.762,236.769 322.762,242.528 322.700 C 248.288 322.637,243.460 322.586,231.800 322.586 C 220.140 322.586,215.428 322.637,221.328 322.700 M275.701 337.800 C 275.705 338.680,275.787 338.993,275.883 338.495 C 275.979 337.998,275.975 337.278,275.875 336.895 C 275.775 336.513,275.696 336.920,275.701 337.800 M124.101 340.200 C 124.105 341.080,124.187 341.393,124.283 340.895 C 124.379 340.398,124.375 339.678,124.275 339.295 C 124.175 338.913,124.096 339.320,124.101 340.200 M147.305 341.087 C 147.914 341.179,148.814 341.177,149.305 341.082 C 149.797 340.987,149.300 340.911,148.200 340.914 C 147.100 340.917,146.697 340.995,147.305 341.087 M179.500 341.100 C 193.635 341.158,216.765 341.158,230.900 341.100 C 245.035 341.042,233.470 340.994,205.200 340.994 C 176.930 340.994,165.365 341.042,179.500 341.100 M276.093 346.000 C 276.093 346.770,276.175 347.085,276.276 346.700 C 276.376 346.315,276.376 345.685,276.276 345.300 C 276.175 344.915,276.093 345.230,276.093 346.000 M123.693 348.000 C 123.693 348.770,123.775 349.085,123.876 348.700 C 123.976 348.315,123.976 347.685,123.876 347.300 C 123.775 346.915,123.693 347.230,123.693 348.000 M123.293 354.000 C 123.293 354.770,123.375 355.085,123.476 354.700 C 123.576 354.315,123.576 353.685,123.476 353.300 C 123.375 352.915,123.293 353.230,123.293 354.000 M259.701 361.400 C 259.705 362.280,259.787 362.593,259.883 362.095 C 259.979 361.598,259.975 360.878,259.875 360.495 C 259.775 360.113,259.696 360.520,259.701 361.400 M140.093 363.600 C 140.093 364.370,140.175 364.685,140.276 364.300 C 140.376 363.915,140.376 363.285,140.276 362.900 C 140.175 362.515,140.093 362.830,140.093 363.600 M278.093 365.600 C 278.093 366.370,278.175 366.685,278.276 366.300 C 278.376 365.915,278.376 365.285,278.276 364.900 C 278.175 364.515,278.093 364.830,278.093 365.600 M121.693 368.000 C 121.693 368.770,121.775 369.085,121.876 368.700 C 121.976 368.315,121.976 367.685,121.876 367.300 C 121.775 366.915,121.693 367.230,121.693 368.000 M262.101 387.800 C 262.105 388.680,262.187 388.993,262.283 388.495 C 262.379 387.998,262.375 387.278,262.275 386.895 C 262.175 386.513,262.096 386.920,262.101 387.800 M137.693 390.000 C 137.693 390.770,137.775 391.085,137.876 390.700 C 137.976 390.315,137.976 389.685,137.876 389.300 C 137.775 388.915,137.693 389.230,137.693 390.000 " stroke="none" fill="#848484" fill-rule="evenodd"></path><path id="path4" d="M191.771 1.100 C 191.594 1.705,191.348 17.650,191.225 36.532 C 191.006 69.920,190.979 70.880,190.224 71.432 C 189.069 72.277,169.120 72.268,168.419 71.422 C 167.902 70.800,168.397 61.591,169.184 57.200 C 169.400 55.990,169.768 52.660,170.001 49.800 C 170.233 46.940,170.526 43.789,170.650 42.797 C 171.043 39.681,170.441 39.426,162.324 39.266 C 152.100 39.064,152.652 38.508,152.022 49.646 C 151.780 53.911,151.321 58.840,151.002 60.600 C 150.683 62.360,150.141 67.832,149.798 72.759 C 149.455 77.687,149.091 81.852,148.991 82.015 C 148.801 82.322,147.201 98.306,147.200 99.900 C 147.199 102.529,148.898 102.396,114.900 102.440 C 82.739 102.482,83.061 102.468,81.426 103.897 L 80.400 104.795 80.406 184.697 C 80.409 228.644,80.544 264.790,80.706 265.023 C 81.924 266.777,82.158 266.800,99.189 266.806 C 117.294 266.812,117.096 266.785,117.781 269.403 C 118.474 272.046,118.364 272.000,123.947 272.000 C 131.122 272.000,130.661 271.339,130.056 280.743 C 129.785 284.948,129.304 289.745,128.987 291.403 C 128.670 293.061,128.225 297.699,127.999 301.709 C 127.773 305.719,127.331 311.160,127.017 313.800 C 126.703 316.440,126.331 320.310,126.190 322.400 C 126.050 324.490,125.687 327.820,125.383 329.800 C 124.799 333.615,124.196 340.949,123.789 349.200 C 123.653 351.950,123.285 355.910,122.971 358.000 C 122.657 360.090,122.138 364.680,121.818 368.200 C 120.454 383.225,119.571 391.972,119.167 394.481 C 118.702 397.364,119.233 400.000,120.280 400.000 C 120.964 400.000,120.936 399.424,120.184 397.968 C 119.845 397.313,119.646 396.647,119.741 396.488 C 119.837 396.330,120.119 393.500,120.368 390.200 C 120.616 386.900,120.991 383.300,121.201 382.200 C 121.411 381.100,121.866 376.510,122.213 372.000 C 122.559 367.490,123.015 363.170,123.225 362.400 C 123.435 361.630,123.794 357.760,124.022 353.800 C 124.588 343.986,125.039 338.637,125.758 333.200 C 126.093 330.670,126.559 326.260,126.793 323.400 C 127.027 320.540,127.377 317.175,127.572 315.922 C 127.766 314.669,128.133 309.629,128.387 304.722 C 128.642 299.815,129.017 295.281,129.222 294.647 C 129.618 293.423,130.127 288.273,130.786 278.809 C 131.302 271.407,131.711 271.861,124.308 271.600 L 118.641 271.400 118.221 269.209 C 117.583 265.888,118.321 266.013,99.300 266.006 C 80.843 265.999,81.545 266.110,81.006 263.122 C 80.874 262.395,80.819 226.555,80.883 183.477 L 81.000 105.154 82.000 104.399 C 82.959 103.674,84.252 103.642,113.892 103.613 C 144.440 103.583,144.799 103.574,146.194 102.750 C 147.848 101.775,147.812 101.915,148.373 94.279 C 148.612 91.022,149.067 86.792,149.385 84.879 C 149.703 82.965,150.156 77.710,150.393 73.200 C 150.630 68.690,151.084 64.031,151.403 62.847 C 151.721 61.663,152.171 57.073,152.402 52.647 C 152.869 43.713,153.318 40.979,154.416 40.392 C 155.721 39.693,169.013 39.892,169.616 40.619 C 170.129 41.237,169.480 49.918,168.423 56.595 C 167.715 61.063,167.430 71.113,167.992 71.790 C 168.673 72.611,189.196 72.694,190.800 71.882 L 191.800 71.377 192.022 36.788 C 192.144 17.765,192.389 1.705,192.568 1.100 C 192.770 0.417,192.742 -0.000,192.493 -0.000 C 192.273 -0.000,191.948 0.495,191.771 1.100 M207.214 0.500 C 207.222 0.775,207.486 1.450,207.800 2.000 C 208.283 2.845,208.374 8.289,208.386 37.077 L 208.400 71.155 209.289 71.777 C 210.709 72.772,231.222 72.703,232.064 71.700 C 232.794 70.832,232.378 59.259,231.399 53.200 C 230.512 47.708,230.051 41.100,230.513 40.500 C 231.058 39.792,244.594 39.807,246.000 40.517 C 246.964 41.003,247.010 41.208,247.289 46.211 C 247.748 54.451,248.380 60.816,248.822 61.642 C 249.046 62.060,249.414 66.047,249.639 70.502 C 249.864 74.956,250.213 79.680,250.414 81.000 C 250.753 83.221,251.745 92.785,252.255 98.742 C 252.431 100.801,252.683 101.503,253.580 102.442 L 254.687 103.600 285.843 103.609 C 315.949 103.617,317.034 103.644,318.000 104.386 L 319.000 105.154 319.115 183.477 C 319.178 226.555,319.130 262.354,319.010 263.031 C 318.487 265.956,319.589 265.777,300.643 266.000 C 281.333 266.227,282.404 266.023,281.721 269.600 L 281.377 271.400 275.707 271.600 C 272.036 271.729,269.866 271.971,269.552 272.286 C 268.932 272.908,269.776 287.998,270.598 291.000 C 270.900 292.100,271.345 297.050,271.587 302.000 C 271.830 306.950,272.288 312.890,272.606 315.200 C 272.924 317.510,273.373 321.881,273.604 324.914 C 273.834 327.947,274.278 331.907,274.590 333.714 C 274.902 335.521,275.357 341.050,275.603 346.000 C 275.848 350.950,276.388 357.340,276.803 360.200 C 277.219 363.060,277.757 368.190,278.000 371.600 C 278.243 375.010,278.600 378.520,278.793 379.400 C 279.711 383.575,280.432 397.371,279.824 399.100 C 279.563 399.840,279.650 400.000,280.311 400.000 C 281.291 400.000,281.630 397.734,281.118 394.600 C 280.939 393.500,280.433 388.820,279.994 384.200 C 279.555 379.580,279.024 374.360,278.814 372.600 C 278.603 370.840,278.240 367.150,278.006 364.400 C 277.773 361.650,277.325 357.690,277.011 355.600 C 276.697 353.510,276.243 347.840,276.001 343.000 C 275.759 338.160,275.313 332.670,275.010 330.800 C 274.706 328.930,274.259 324.970,274.015 322.000 C 273.772 319.030,273.315 314.350,272.999 311.600 C 272.684 308.850,272.232 303.180,271.995 299.000 C 271.758 294.820,271.404 290.770,271.207 290.000 C 270.770 288.281,270.123 282.372,269.777 276.936 C 269.456 271.885,269.308 272.000,276.145 272.000 C 281.427 272.000,282.400 271.690,282.400 270.004 C 282.400 266.870,282.808 266.800,301.000 266.800 C 317.646 266.800,318.694 266.696,319.352 264.982 C 319.488 264.626,319.600 228.438,319.600 184.565 L 319.600 104.795 318.575 103.897 C 316.970 102.492,317.082 102.497,284.962 102.447 C 256.504 102.403,254.485 102.354,253.922 101.700 C 253.307 100.985,252.771 97.242,251.989 88.200 C 251.761 85.560,251.319 81.600,251.008 79.400 C 250.696 77.200,250.326 73.060,250.185 70.200 C 250.044 67.340,249.579 62.570,249.150 59.600 C 248.722 56.630,248.196 51.320,247.981 47.800 C 247.509 40.070,247.526 40.130,245.645 39.566 C 243.148 38.818,231.004 39.224,230.144 40.084 C 229.382 40.846,229.795 48.755,230.989 56.259 C 231.897 61.967,232.239 71.203,231.558 71.634 C 230.600 72.241,210.720 72.066,209.900 71.443 C 209.243 70.944,209.200 68.827,209.200 36.987 C 209.200 5.524,209.149 2.952,208.500 1.541 C 207.807 0.036,207.187 -0.466,207.214 0.500 M165.909 90.300 C 165.521 90.742,165.207 92.181,165.059 94.200 C 164.929 95.960,164.710 98.300,164.571 99.400 C 164.335 101.275,164.397 101.469,165.556 102.500 L 166.793 103.600 177.735 103.600 C 192.520 103.600,192.091 103.839,191.912 95.715 C 191.802 90.734,191.778 90.611,190.800 90.117 C 189.048 89.232,166.703 89.396,165.909 90.300 M209.289 90.223 C 208.446 90.813,208.400 91.120,208.400 96.202 L 208.400 101.559 209.738 102.580 L 211.076 103.600 222.295 103.600 L 233.515 103.600 234.775 102.424 C 236.138 101.150,236.185 100.289,235.173 95.080 C 234.968 94.024,234.800 92.642,234.800 92.009 C 234.800 89.620,234.695 89.600,221.860 89.600 C 211.934 89.600,210.044 89.694,209.289 90.223 M190.204 90.553 C 191.515 91.512,191.643 100.844,190.357 101.745 C 188.849 102.801,166.820 102.727,165.856 101.662 C 165.102 100.829,165.616 91.545,166.473 90.512 C 167.116 89.737,189.140 89.775,190.204 90.553 M233.609 90.610 C 234.648 91.862,235.215 100.898,234.305 101.700 C 233.130 102.736,211.073 102.771,209.931 101.738 C 208.857 100.766,208.831 91.369,209.900 90.557 C 211.009 89.715,232.907 89.765,233.609 90.610 M85.612 105.901 C 84.798 106.310,84.111 107.014,83.951 107.600 C 83.443 109.470,83.551 260.759,84.061 261.726 C 84.314 262.207,84.954 263.005,85.481 263.500 L 86.441 264.400 199.932 264.400 C 302.126 264.400,313.511 264.338,314.313 263.776 C 316.535 262.220,316.403 267.305,316.360 184.720 C 316.317 102.684,316.423 106.926,314.388 105.901 C 312.231 104.814,87.769 104.814,85.612 105.901 M313.984 106.392 C 315.612 107.263,315.600 106.664,315.600 185.098 C 315.600 268.365,315.772 262.446,313.315 263.566 C 311.859 264.229,87.224 264.151,86.382 263.487 C 84.252 261.809,84.400 267.679,84.400 184.891 C 84.400 104.275,84.342 106.972,86.092 106.268 C 87.092 105.865,313.231 105.988,313.984 106.392 M149.341 271.997 C 148.052 272.517,148.006 272.694,147.377 279.494 C 147.056 282.962,146.633 286.970,146.436 288.400 C 146.239 289.830,145.870 295.050,145.616 300.000 C 145.362 304.950,144.991 309.540,144.791 310.200 C 143.661 313.935,143.321 321.423,144.223 322.711 L 144.845 323.600 166.923 323.599 C 188.164 323.597,189.049 323.567,190.289 322.811 C 192.092 321.712,192.041 322.459,191.914 299.111 L 191.800 278.022 190.890 277.111 C 190.008 276.228,189.693 276.194,180.690 276.000 C 170.470 275.780,169.139 275.478,166.258 272.724 L 165.081 271.600 157.641 271.625 C 153.548 271.639,149.813 271.807,149.341 271.997 M234.935 272.106 C 234.460 272.378,233.281 273.155,232.315 273.832 C 229.667 275.692,227.746 276.000,218.792 276.000 L 210.738 276.000 209.569 277.169 L 208.400 278.338 208.400 299.934 L 208.400 321.529 209.631 322.564 L 210.861 323.600 233.021 323.600 L 255.182 323.600 255.851 322.578 C 256.653 321.354,256.423 313.785,255.408 308.012 C 255.078 306.135,254.538 300.100,254.209 294.600 C 253.879 289.100,253.443 283.970,253.240 283.200 C 253.036 282.430,252.752 280.090,252.607 278.000 C 252.254 272.893,252.137 272.526,250.704 272.026 C 248.941 271.412,236.036 271.477,234.935 272.106 M166.716 273.832 C 170.111 276.450,171.812 276.800,181.154 276.800 L 189.238 276.800 190.219 277.858 L 191.200 278.917 191.200 300.029 L 191.200 321.142 190.119 321.993 C 188.508 323.260,145.505 323.106,144.572 321.830 C 143.950 320.978,144.066 318.856,145.031 313.478 C 145.339 311.761,145.777 307.081,146.003 303.078 C 146.364 296.680,146.722 292.792,148.391 277.091 C 148.949 271.845,148.682 271.986,157.800 272.109 L 164.600 272.200 166.716 273.832 M250.119 272.369 C 251.440 272.872,251.507 273.133,252.198 280.522 C 252.531 284.085,252.977 288.260,253.190 289.800 C 253.402 291.340,253.775 296.110,254.019 300.400 C 254.262 304.690,254.713 309.524,255.020 311.142 C 255.879 315.674,256.183 320.911,255.645 321.917 L 255.185 322.775 233.124 322.793 L 211.064 322.811 210.132 321.936 L 209.200 321.061 209.200 299.984 C 209.200 279.268,209.214 278.890,210.029 277.854 L 210.858 276.800 218.929 276.796 C 228.732 276.790,230.762 276.331,234.000 273.387 C 234.550 272.887,235.360 272.391,235.800 272.285 C 237.287 271.928,249.140 271.997,250.119 272.369 M142.781 340.735 C 141.967 341.394,141.839 341.979,141.530 346.435 C 141.341 349.166,141.015 351.850,140.806 352.400 C 140.339 353.631,139.732 359.687,139.382 366.600 C 139.238 369.460,138.875 372.790,138.577 374.000 C 138.278 375.210,137.836 379.530,137.594 383.600 C 137.143 391.187,136.372 396.957,135.623 398.357 C 135.128 399.281,135.074 400.002,135.500 399.996 C 136.562 399.982,137.288 396.253,137.823 388.068 C 138.130 383.376,138.660 378.066,139.001 376.268 C 139.343 374.471,139.801 369.850,140.019 366.000 C 140.238 362.150,140.692 357.403,141.029 355.451 C 141.366 353.499,141.793 349.728,141.977 347.070 C 142.275 342.783,142.413 342.157,143.201 341.519 C 144.604 340.382,256.002 340.402,257.139 341.539 C 257.715 342.115,257.940 343.186,258.163 346.421 C 258.320 348.700,258.703 351.922,259.014 353.582 C 259.326 355.242,259.770 359.804,260.001 363.720 C 260.232 367.636,260.686 372.226,261.011 373.920 C 261.335 375.614,261.778 379.880,261.996 383.400 C 262.640 393.817,263.575 400.000,264.506 400.000 C 264.721 400.000,264.773 399.598,264.625 399.100 C 264.477 398.605,264.092 396.400,263.769 394.200 C 263.447 392.000,263.103 389.930,263.007 389.600 C 262.910 389.270,262.638 385.679,262.402 381.620 C 262.167 377.560,261.719 372.970,261.408 371.420 C 261.097 369.869,260.642 365.180,260.398 361.000 C 260.153 356.820,259.773 352.680,259.553 351.800 C 259.333 350.920,258.914 348.173,258.622 345.696 C 258.330 343.219,257.869 340.924,257.597 340.596 C 256.747 339.572,144.049 339.708,142.781 340.735 " stroke="none" fill="#7c7c7c" fill-rule="evenodd"></path></g></svg>