<svg id="svg" version="1.1" width="418" height="824" viewBox="0 0 418 824" xmlns="http://www.w3.org/2000/svg"><path d="M198.000 74.911 L 198.000 149.885 193.750 150.193 L 189.500 150.500 189.193 155.312 C 188.944 159.210,188.564 160.061,187.193 159.788 C 186.183 159.587,185.591 158.653,185.725 157.475 C 185.849 156.389,186.873 148.783,188.001 140.574 L 190.052 125.648 186.830 122.324 L 183.608 119.000 167.323 119.000 L 151.038 119.000 150.349 121.747 C 149.970 123.257,148.042 132.370,146.064 141.997 L 142.470 159.500 132.735 159.786 L 123.000 160.072 123.000 169.028 L 123.000 177.985 62.250 178.242 L 1.500 178.500 1.248 376.750 L 0.995 575.000 20.464 575.000 L 39.932 575.000 40.216 585.750 L 40.500 596.500 48.750 596.790 C 53.288 596.950,57.000 597.351,57.000 597.682 C 57.000 598.012,46.905 647.606,34.566 707.891 C 22.227 768.176,11.989 818.850,11.816 820.500 L 11.500 823.500 25.000 823.720 L 38.500 823.939 45.164 817.720 L 51.829 811.500 63.650 751.250 L 75.470 691.000 136.735 691.000 L 198.000 691.000 198.000 721.032 L 198.000 751.063 209.750 750.782 L 221.500 750.500 221.765 720.750 L 222.030 691.000 283.406 691.000 L 344.783 691.000 345.324 693.250 C 346.066 696.338,362.298 779.213,365.547 796.500 L 368.177 810.500 375.183 817.250 L 382.188 824.000 395.125 824.000 C 405.108 824.000,408.182 823.690,408.584 822.641 C 409.003 821.549,365.298 605.002,363.397 598.750 C 362.921 597.184,363.713 597.000,370.933 597.000 L 379.000 597.000 379.000 586.000 L 379.000 575.000 398.002 575.000 L 417.005 575.000 416.752 376.750 L 416.500 178.500 356.789 178.242 L 297.078 177.984 296.789 169.242 L 296.500 160.500 286.850 160.215 C 277.669 159.944,277.171 159.816,276.611 157.585 C 276.287 156.296,274.419 147.456,272.459 137.941 C 270.499 128.425,268.668 120.271,268.389 119.820 C 268.110 119.369,260.537 119.000,251.560 119.000 L 235.237 119.000 232.619 122.433 C 229.474 126.557,229.468 126.776,232.023 144.921 C 233.136 152.822,233.831 159.503,233.567 159.767 C 232.064 161.269,230.088 158.659,229.810 154.804 C 229.509 150.618,229.397 150.491,225.756 150.190 L 222.013 149.880 221.756 75.190 L 221.500 0.500 209.750 0.218 L 198.000 -0.063 198.000 74.911 M218.000 77.000 L 218.000 150.000 209.500 150.000 L 201.000 150.000 201.000 77.000 L 201.000 4.000 209.500 4.000 L 218.000 4.000 218.000 77.000 M179.938 124.750 C 179.903 125.713,178.664 133.925,177.184 143.000 L 174.494 159.500 161.550 159.781 C 154.431 159.936,148.100 159.869,147.481 159.631 C 146.509 159.258,150.014 139.013,153.347 125.750 L 154.038 123.000 167.019 123.000 C 178.739 123.000,179.994 123.170,179.938 124.750 M268.890 139.250 C 270.691 148.188,272.401 156.512,272.690 157.750 L 273.217 160.000 259.188 160.000 L 245.159 160.000 244.589 157.250 C 244.275 155.738,243.122 148.650,242.025 141.500 C 240.929 134.350,239.811 127.263,239.541 125.750 L 239.050 123.000 252.333 123.000 L 265.617 123.000 268.890 139.250 M183.723 143.562 C 182.311 153.447,181.008 159.497,180.235 159.755 C 178.517 160.328,178.656 157.221,181.016 142.272 C 183.776 124.789,183.939 124.140,185.066 126.154 C 185.648 127.194,185.164 133.466,183.723 143.562 M238.414 143.000 C 240.575 156.886,240.574 161.907,238.409 159.742 C 238.066 159.399,236.789 151.901,235.571 143.080 C 233.996 131.671,233.666 126.731,234.429 125.963 C 235.195 125.190,235.571 125.255,235.751 126.191 C 235.889 126.911,237.088 134.475,238.414 143.000 M226.000 166.000 L 226.000 178.000 209.500 178.000 L 193.000 178.000 193.000 166.000 L 193.000 154.000 209.500 154.000 L 226.000 154.000 226.000 166.000 M205.357 156.992 C 202.055 158.324,200.000 162.023,200.000 166.634 C 200.000 170.083,200.543 171.279,203.077 173.411 C 208.316 177.819,215.554 176.697,218.490 171.020 C 220.897 166.364,220.380 163.180,216.600 159.400 C 213.098 155.898,209.812 155.194,205.357 156.992 M214.171 161.655 C 218.344 165.431,213.923 173.970,208.593 172.431 C 205.196 171.450,202.793 167.978,203.493 165.063 C 204.670 160.170,210.481 158.315,214.171 161.655 M189.000 170.500 L 189.000 178.000 158.000 178.000 L 127.000 178.000 127.000 170.500 L 127.000 163.000 158.000 163.000 L 189.000 163.000 189.000 170.500 M293.000 170.500 L 293.000 178.000 261.500 178.000 L 230.000 178.000 230.000 170.500 L 230.000 163.000 261.500 163.000 L 293.000 163.000 293.000 170.500 M414.000 376.500 L 414.000 571.000 209.000 571.000 L 4.000 571.000 4.000 376.500 L 4.000 182.000 209.000 182.000 L 414.000 182.000 414.000 376.500 M375.000 584.000 L 375.000 593.000 209.500 593.000 L 44.000 593.000 44.000 584.000 L 44.000 575.000 209.500 575.000 L 375.000 575.000 375.000 584.000 M79.519 599.250 C 79.233 600.487,74.253 625.575,68.451 655.000 C 62.649 684.425,52.974 733.370,46.951 763.766 C 40.928 794.163,36.000 819.250,36.000 819.516 C 36.000 819.782,31.500 820.000,26.000 820.000 C 18.199 820.000,16.000 819.699,16.000 818.630 C 16.000 817.451,29.644 750.363,54.447 629.589 C 58.051 612.038,61.000 597.525,61.000 597.339 C 61.000 597.153,65.284 597.000,70.519 597.000 C 79.878 597.000,80.029 597.038,79.519 599.250 M89.582 599.750 C 88.837 603.298,65.044 724.545,55.781 772.000 L 48.656 808.500 45.090 812.286 C 43.129 814.368,41.379 815.637,41.202 815.106 C 40.916 814.247,82.305 603.078,83.608 598.750 C 83.958 597.587,85.146 597.000,87.147 597.000 C 89.906 597.000,90.110 597.231,89.582 599.750 M129.451 599.660 C 129.818 601.124,130.060 605.736,129.989 609.910 C 129.917 614.085,129.891 618.063,129.929 618.750 C 129.984 619.721,136.702 620.000,159.987 620.000 L 189.973 620.000 191.358 623.250 C 192.119 625.038,193.925 627.591,195.371 628.924 L 198.000 631.349 198.000 647.674 L 198.000 664.000 139.500 664.000 C 107.325 664.000,81.000 663.682,81.000 663.293 C 81.000 662.618,92.486 603.929,93.534 599.250 C 94.033 597.022,94.211 597.000,111.411 597.000 L 128.783 597.000 129.451 599.660 M286.000 606.899 L 286.000 616.799 209.750 616.649 L 133.500 616.500 133.214 606.750 L 132.928 597.000 209.464 597.000 L 286.000 597.000 286.000 606.899 M332.694 628.500 C 336.100 645.550,338.913 660.513,338.944 661.750 L 339.000 664.000 280.500 664.000 L 222.000 664.000 222.000 647.655 C 222.000 632.985,222.191 631.137,223.861 629.625 C 224.885 628.699,226.529 626.154,227.513 623.970 L 229.304 620.000 259.652 620.000 L 290.000 620.000 290.000 608.477 L 290.000 596.955 308.250 597.227 L 326.500 597.500 332.694 628.500 M345.822 643.750 C 369.712 764.145,379.793 815.520,379.573 815.750 C 379.441 815.888,377.682 814.538,375.664 812.750 L 371.994 809.500 354.043 718.000 C 344.170 667.675,334.795 619.862,333.208 611.750 L 330.324 597.000 333.435 597.000 L 336.546 597.000 345.822 643.750 M381.546 705.500 C 393.705 764.900,403.945 814.962,404.301 816.750 L 404.950 820.000 394.725 819.989 L 384.500 819.978 374.601 769.739 C 369.157 742.108,359.369 692.605,352.851 659.734 C 346.333 626.863,341.000 599.284,341.000 598.447 C 341.000 597.174,342.507 596.972,350.219 597.212 L 359.439 597.500 381.546 705.500 M225.000 621.039 C 225.000 621.610,223.272 623.929,221.161 626.193 C 217.720 629.882,216.735 630.357,211.666 630.778 C 204.977 631.332,200.950 629.918,197.480 625.794 C 192.833 620.272,193.420 620.000,210.000 620.000 C 219.706 620.000,225.000 620.367,225.000 621.039 M218.000 649.250 L 218.000 664.000 210.000 664.000 L 202.000 664.000 202.001 649.250 L 202.003 634.500 210.002 634.500 L 218.000 634.500 218.000 649.250 M340.500 669.000 C 340.911 669.665,297.344 670.000,210.559 670.000 C 124.186 670.000,80.000 669.662,80.000 669.000 C 80.000 668.338,123.980 668.000,209.941 668.000 C 295.490 668.000,340.093 668.342,340.500 669.000 M342.420 678.250 C 342.792 680.587,343.348 683.513,343.656 684.750 L 344.217 687.000 210.215 687.000 L 76.213 687.000 77.114 682.750 C 77.610 680.413,78.246 677.487,78.527 676.250 L 79.038 674.000 210.391 674.000 L 341.744 674.000 342.420 678.250 M217.766 719.178 L 217.500 747.356 209.751 747.428 L 202.003 747.500 202.001 719.250 L 202.000 691.000 210.016 691.000 L 218.031 691.000 217.766 719.178 " stroke="none" fill="black" fill-rule="evenodd"/></svg>